<?xml version="1.0" encoding="utf-8"?>
<!-- Generator: Adobe Illustrator 24.2.3, SVG Export Plug-In . SVG Version: 6.00 Build 0)  -->
<svg version="1.1" id="Layer_1" xmlns="http://www.w3.org/2000/svg" xmlns:xlink="http://www.w3.org/1999/xlink" x="0px" y="0px"
	 viewBox="0 0 2984.9 776" style="enable-background:new 0 0 2984.9 776;" xml:space="preserve">
<style type="text/css">
	.st0{fill:#08204E;}
	.st1{fill:url(#SVGID_1_);}
	.st2{fill:url(#SVGID_2_);}
	.st3{fill:url(#SVGID_3_);}
</style>
<rect class="st0" width="2996.3" height="776"/>
<g>
	<g>
		
			<linearGradient id="SVGID_1_" gradientUnits="userSpaceOnUse" x1="2311.145" y1="682.783" x2="2311.0271" y2="682.658" gradientTransform="matrix(-2723.947 -47.5467 54.5536 -3125.376 6259594 2244410.75)">
			<stop  offset="0" style="stop-color:#0A265C"/>
			<stop  offset="1" style="stop-color:#5A4A9E"/>
		</linearGradient>
		<path class="st1" d="M1825,2184.6c-173.8,109.5-226.7,340.2-118.1,515.4s337.5,228.4,511.4,118.9
			c774.8-488,1010.6-1516.5,526.5-2297.3c-484-780.7-1504.5-1018-2279.4-530C291.6,101,238.7,331.7,347.3,506.9
			s337.5,228.4,511.3,118.9c427.2-269,989.8-138.2,1256.6,292.2C2382.1,1348.5,2252.2,1915.5,1825,2184.6L1825,2184.6z"/>
		
			<linearGradient id="SVGID_2_" gradientUnits="userSpaceOnUse" x1="2309.8936" y1="682.0826" x2="2310.4377" y2="682.3237" gradientTransform="matrix(1971.4285 2777.7964 2777.6414 -1971.3395 -6448383.5 -5072541)">
			<stop  offset="0" style="stop-color:#0A265C"/>
			<stop  offset="0.541" style="stop-color:#0A265C"/>
			<stop  offset="1" style="stop-color:#5396F0"/>
		</linearGradient>
		<path class="st2" d="M1861.8,180.6c184.2,28.4,309.3,200.5,279.3,384.5c-29.9,183.9-203.4,310-387.6,281.6L122.8,595.2
			c-184.2-28.4-309.2-200.5-279.4-384.5l264.7-1628.6c29.9-183.9,203.4-310,387.6-281.6S805-1499,775.1-1315L564.6-19.4
			L1861.8,180.6z"/>
		
			<linearGradient id="SVGID_3_" gradientUnits="userSpaceOnUse" x1="2310.0803" y1="682.5733" x2="2310.7351" y2="682.6053" gradientTransform="matrix(1343.0773 1868.1539 -1136.6775 820.6319 -2326244.25 -4876174)">
			<stop  offset="0" style="stop-color:#9FDDFF"/>
			<stop  offset="1" style="stop-color:#0A265C"/>
		</linearGradient>
		<path class="st3" d="M1905.2,1849.7c167.7,118,400.7,77.3,520.1-91c119.4-168.2,123.5-574.3-44.3-692.3L1024.6,317.2
			c-167.7-118-400.7-77.3-520.1,91s-80.2,400.3,87.6,518.3L1905.2,1849.7L1905.2,1849.7z"/>
	</g>
</g>
</svg>
